
        <svg xmlns="http://www.w3.org/2000/svg" xmlns:xlink="http://www.w3.org/1999/xlink" version="1.1" width="3250" 
        height="1575" viewBox="0 0 3250 1575">
			
			<g transform="scale(12.5) translate(10, 10)">
				<defs id="SvgjsDefs1349"></defs><g id="SvgjsG1350" featureKey="rootContainer" transform="matrix(1,0,0,1,0,0)" fill="#111111"><rect xmlns="http://www.w3.org/2000/svg" width="240" height="106" rx="10" ry="10"></rect></g><g id="SvgjsG1351" featureKey="q4o0QG-0" transform="matrix(4.317789554595947,0,0,4.317789554595947,16.891191823189768,-1.5025908975986049)" fill="#ffffff"><path d="M7.72 5.380000000000001 l0.52 0.34 l0.4 1.72 l0 2.84 l-0.36 6.42 l-0.64 1 l-0.46 0.2 l-2.8 -0.02 l-0.12 0.26 l0.86 0.4 l2.46 0.02 l0.2 1.58 l-1.82 0 l-1.7 0 l-1.22 -0.2 l-0.7 -0.66 l-0.22 -0.96 l0.1 -0.46 l-0.44 0 l-0.92 -0.68 l-0.14 -0.76 l0 -7.84 l0.44 -2.84 l1.46 -0.48 l2.22 -0.04 z M4.76 15.780000000000001 l1.42 -0.44 l0.2 -8.38 l-1.8 -0.16 l-0.52 0.3 l-0.02 5.38 l0.18 2.22 l0 0.44 l0.1 0.48 z M11.959999999999999 19.34 l-2.58 -13.92 l1.24 -0.18 l2.02 0.08 l1.26 11.94 l0.36 0.9 l0.82 -12.9 l2.68 -0.04 l0.78 0.06 l-2.14 12.92 l-0.48 1.8 l-3.76 0.2 z M19.46 8.88 l3.2 0.08 l-0.16 2.5 l0.24 5.08 l-0.14 3.38 l-0.28 0.04 l-2.8 -0.06 l-0.12 -0.92 l-0.04 -5.36 z M19.580000000000002 4.98 l3.02 0.04 l0.14 0.78 l0 1.34 l-0.08 0.72 l-3.2 0.02 l-0.1 -1.3 l-0.04 -1.4 z M24.26 19.92 l-0.04 -6.94 l0.08 -0.74 l-0.04 -0.74 l0.1 -4.42 l0.18 -1.72 l6.5 0.12 l0.1 3.9 l-4.26 0 l-0.08 2.5 l3.26 -0.06 l0 0.22 l0.1 1.7 l-3.04 0.06 l0.1 2.96 l4.06 0.2 l0 3.08 z M31.720000000000002 5.359999999999999 l4.06 -0.12 l2.12 0.08 l0.6 0.04 l-0.22 2.9 l-1.6 -0.1 l0.12 11.84 l-3.54 0.04 l0.18 -7.04 l0.08 -4.88 l-1.94 -0.18 z M44.96 12.219999999999999 l-0.28 -6.92 l0.16 0 l1.7 0.04 l0.5 14.64 l-2.24 0.1 l-0.1 -5.82 l-2.16 0.12 l-0.14 5.62 l-2.36 0 l-0.82 -0.04 l0 -2.56 l-0.16 -4.62 l0.2 -7.48 l3.32 0.06 l-0.08 6.92 z"></path></g>
			</g>
		</svg>
	